<svg xmlns="http://www.w3.org/2000/svg" xmlns:xlink="http://www.w3.org/1999/xlink" width="1152" zoomAndPan="magnify" viewBox="0 0 864 863.999991" height="1152" preserveAspectRatio="xMidYMid meet" version="1.0"><defs><clipPath id="5e16b2bdfa"><path d="M 46.933594 23.464844 L 840.433594 23.464844 L 840.433594 816.964844 L 46.933594 816.964844 Z M 46.933594 23.464844 " clip-rule="nonzero"/></clipPath></defs><rect x="-86.4" width="1036.8" fill="#ffffff" y="-86.399999" height="1036.79999" fill-opacity="1"/><rect x="-86.4" width="1036.8" fill="#e27d60" y="-86.399999" height="1036.79999" fill-opacity="1"/><g clip-path="url(#5e16b2bdfa)"><path fill="#f7f7f7" d="M 443.375 23.234375 C 224.296875 23.234375 46.691406 200.84375 46.691406 419.921875 C 46.691406 639 224.296875 816.609375 443.375 816.609375 C 662.453125 816.609375 840.074219 638.992188 840.074219 419.921875 C 840.074219 200.835938 662.453125 23.234375 443.375 23.234375 Z M 616.042969 623.148438 L 233.800781 623.148438 C 223.273438 623.148438 214.746094 614.628906 214.746094 604.101562 L 214.746094 235.734375 C 214.746094 225.210938 223.273438 216.6875 233.800781 216.6875 L 652.964844 216.6875 C 663.496094 216.6875 672.019531 225.210938 672.019531 235.734375 L 672.019531 439.585938 L 627.21875 439.585938 L 627.21875 260.804688 L 259.117188 260.804688 L 259.117188 506.824219 L 280.140625 506.824219 L 365.085938 374.363281 L 421.851562 462.871094 L 450.039062 506.824219 L 474.480469 506.824219 L 434.066406 443.8125 L 460.40625 402.738281 L 527.15625 506.816406 L 554.070312 506.816406 L 554.070312 599.804688 L 616.03125 599.804688 L 616.03125 623.148438 Z M 594.828125 343.339844 C 594.828125 365.109375 577.171875 382.765625 555.402344 382.765625 C 533.632812 382.765625 515.976562 365.109375 515.976562 343.339844 C 515.976562 321.570312 533.632812 303.914062 555.402344 303.914062 C 577.171875 303.914062 594.828125 321.574219 594.828125 343.339844 Z M 686.871094 572.378906 L 686.871094 634.320312 L 643.480469 634.320312 L 643.480469 572.378906 L 581.523438 572.378906 L 581.523438 528.972656 L 643.480469 528.972656 L 643.480469 467.027344 L 686.871094 467.027344 L 686.871094 528.972656 L 748.820312 528.972656 L 748.820312 572.378906 Z M 686.871094 572.378906 " fill-opacity="1" fill-rule="nonzero"/></g></svg>