<svg xmlns="http://www.w3.org/2000/svg" xmlns:xlink="http://www.w3.org/1999/xlink" width="1000" zoomAndPan="magnify" viewBox="0 0 750 1012.49997" height="1350" preserveAspectRatio="xMidYMid meet" version="1.0"><defs><clipPath id="3875b9ec55"><path d="M 0.183594 0 L 749.8125 0 L 749.8125 1012 L 0.183594 1012 Z M 0.183594 0 " clip-rule="nonzero"/></clipPath><clipPath id="aa1683afad"><path d="M 150.261719 262.378906 L 600 262.378906 L 600 749.636719 L 150.261719 749.636719 Z M 150.261719 262.378906 " clip-rule="nonzero"/></clipPath></defs><g clip-path="url(#3875b9ec55)"><path fill="#ffffff" d="M 0.183594 0 L 749.816406 0 L 749.816406 1012 L 0.183594 1012 Z M 0.183594 0 " fill-opacity="1" fill-rule="nonzero"/><path fill="#ffffff" d="M 0.183594 0 L 749.816406 0 L 749.816406 1012 L 0.183594 1012 Z M 0.183594 0 " fill-opacity="1" fill-rule="nonzero"/></g><g clip-path="url(#aa1683afad)"><path fill="#4d4d4d" d="M 375.128906 351.484375 C 395.160156 351.484375 411.394531 367.714844 411.394531 387.730469 C 411.394531 407.75 395.160156 423.976562 375.128906 423.976562 C 355.097656 423.976562 338.859375 407.75 338.859375 387.730469 C 338.859375 367.714844 355.097656 351.484375 375.128906 351.484375 Z M 554.339844 308.125 L 554.339844 560.761719 L 521.683594 525.601562 L 484.136719 566.035156 L 571.410156 653.253906 L 571.410156 291.066406 L 208.996094 291.066406 L 226.066406 308.125 Z M 178.855469 321.203125 L 178.855469 683.375 L 541.257812 683.375 L 455.097656 597.273438 L 423.648438 631.140625 L 274.214844 450.988281 L 195.925781 545.378906 L 195.925781 338.261719 Z M 571.410156 669.886719 L 476.121094 574.660156 L 209.4375 308.125 L 192.367188 291.066406 L 163.769531 262.492188 L 150.261719 276.007812 L 178.855469 304.585938 L 195.925781 321.644531 L 463.113281 588.664062 L 557.882812 683.375 L 586.476562 711.953125 L 599.992188 698.449219 Z M 212.402344 737.800781 L 198.652344 715.378906 L 192.054688 715.378906 L 192.054688 748.953125 L 198.355469 748.953125 L 198.355469 727.058594 L 211.898438 748.953125 L 218.707031 748.953125 L 218.707031 715.378906 L 212.402344 715.378906 Z M 252.632812 719.410156 C 255.605469 722.476562 257.09375 726.746094 257.09375 732.214844 C 257.09375 737.632812 255.617188 741.875 252.671875 744.933594 C 249.71875 747.996094 245.777344 749.527344 240.84375 749.527344 C 235.847656 749.527344 231.875 748.003906 228.925781 744.957031 C 225.980469 741.914062 224.503906 737.71875 224.503906 732.375 C 224.503906 728.953125 225.015625 726.082031 226.039062 723.761719 C 226.804688 722.050781 227.847656 720.519531 229.167969 719.160156 C 230.488281 717.800781 231.9375 716.792969 233.511719 716.136719 C 235.605469 715.25 238.019531 714.808594 240.753906 714.808594 C 245.703125 714.808594 249.660156 716.34375 252.632812 719.410156 Z M 250.078125 732.050781 C 250.078125 728.203125 249.234375 725.335938 247.546875 723.441406 C 245.855469 721.546875 243.613281 720.601562 240.820312 720.601562 C 238.023438 720.601562 235.769531 721.558594 234.058594 723.476562 C 232.347656 725.394531 231.492188 728.28125 231.492188 732.144531 C 231.492188 735.945312 232.371094 738.828125 234.128906 740.789062 C 235.886719 742.753906 238.117188 743.734375 240.820312 743.734375 C 243.523438 743.734375 245.742188 742.757812 247.476562 740.8125 C 249.210938 738.867188 250.078125 735.945312 250.078125 732.050781 Z M 259.976562 721.058594 L 269.945312 721.058594 L 269.945312 748.953125 L 276.730469 748.953125 L 276.730469 721.058594 L 286.675781 721.058594 L 286.675781 715.378906 L 259.976562 715.378906 Z M 319.195312 715.378906 L 332.648438 748.957031 L 325.269531 748.957031 L 322.335938 741.328125 L 308.90625 741.328125 L 306.132812 748.957031 L 298.9375 748.957031 L 312.023438 715.378906 Z M 320.160156 735.671875 L 315.53125 723.214844 L 310.992188 735.671875 Z M 353.410156 715.378906 L 345.183594 740.230469 L 336.679688 715.378906 L 329.324219 715.378906 L 341.332031 748.957031 L 348.574219 748.957031 L 360.605469 715.378906 Z M 377.425781 715.378906 L 390.878906 748.957031 L 383.5 748.957031 L 380.566406 741.328125 L 367.136719 741.328125 L 364.367188 748.957031 L 357.167969 748.957031 L 370.253906 715.378906 Z M 378.390625 735.671875 L 373.761719 723.214844 L 369.222656 735.671875 Z M 394.273438 748.957031 L 401.054688 748.957031 L 401.054688 715.378906 L 394.273438 715.378906 Z M 414.484375 715.652344 L 407.703125 715.652344 L 407.703125 748.953125 L 431.351562 748.953125 L 431.351562 743.296875 L 414.484375 743.296875 Z M 453.03125 715.378906 L 466.484375 748.957031 L 459.105469 748.957031 L 456.171875 741.328125 L 442.742188 741.328125 L 439.96875 748.957031 L 432.773438 748.957031 L 445.855469 715.378906 Z M 453.992188 735.671875 L 449.363281 723.214844 L 444.824219 735.671875 Z M 496.597656 734.160156 C 497.695312 735.59375 498.246094 737.28125 498.246094 739.222656 C 498.246094 740.746094 497.890625 742.230469 497.179688 743.675781 C 496.472656 745.117188 495.5 746.273438 494.269531 747.132812 C 493.039062 747.996094 491.523438 748.527344 489.722656 748.726562 C 488.589844 748.847656 485.863281 748.921875 481.539062 748.953125 L 470.105469 748.953125 L 470.105469 715.378906 L 483.535156 715.378906 C 486.191406 715.378906 488.175781 715.488281 489.480469 715.710938 C 490.785156 715.933594 491.953125 716.394531 492.984375 717.097656 C 494.019531 717.796875 494.878906 718.734375 495.5625 719.902344 C 496.253906 721.070312 496.597656 722.378906 496.597656 723.832031 C 496.597656 725.402344 496.171875 726.84375 495.324219 728.160156 C 494.476562 729.472656 493.324219 730.457031 491.875 731.113281 C 493.921875 731.707031 495.496094 732.722656 496.597656 734.160156 Z M 476.886719 728.730469 L 481.332031 728.730469 C 483.976562 728.730469 485.617188 728.695312 486.261719 728.617188 C 487.421875 728.480469 488.335938 728.082031 489 727.417969 C 489.664062 726.75 489.996094 725.875 489.996094 724.792969 C 489.996094 723.753906 489.710938 722.910156 489.136719 722.261719 C 488.5625 721.613281 487.710938 721.21875 486.578125 721.082031 C 485.910156 721.007812 483.976562 720.96875 480.78125 720.96875 L 476.886719 720.96875 Z M 491.234375 738.898438 C 491.234375 737.890625 490.988281 737.039062 490.5 736.335938 C 490.011719 735.632812 489.304688 735.121094 488.378906 734.800781 C 487.457031 734.480469 485.449219 734.320312 482.363281 734.320312 L 476.886719 734.320312 L 476.886719 743.296875 L 483.167969 743.296875 C 485.613281 743.296875 487.160156 743.230469 487.820312 743.09375 C 488.828125 742.90625 489.648438 742.460938 490.28125 741.753906 C 490.917969 741.042969 491.234375 740.089844 491.234375 738.898438 Z M 510.941406 715.652344 L 504.160156 715.652344 L 504.160156 748.953125 L 527.808594 748.953125 L 527.808594 743.296875 L 510.941406 743.296875 Z M 539.429688 734.160156 L 556.296875 734.160156 L 556.296875 728.5 L 539.429688 728.5 L 539.429688 721.058594 L 557.554688 721.058594 L 557.554688 715.378906 L 532.648438 715.378906 L 532.648438 748.953125 L 558.199219 748.953125 L 558.199219 743.296875 L 539.429688 743.296875 Z M 539.429688 734.160156 " fill-opacity="1" fill-rule="nonzero"/></g></svg>